<?xml version="1.0" standalone="no"?>
<!DOCTYPE svg PUBLIC "-//W3C//DTD SVG 20010904//EN"
 "http://www.w3.org/TR/2001/REC-SVG-20010904/DTD/svg10.dtd">
<svg version="1.0" xmlns="http://www.w3.org/2000/svg"
 width="700.000000pt" height="700.000000pt" viewBox="0 0 700.000000 700.000000"
 preserveAspectRatio="xMidYMid meet">
<metadata>
Created by potrace 1.11, written by Peter Selinger 2001-2013
</metadata>
<g transform="translate(0.000000,700.000000) scale(0.100000,-0.100000)"
fill="#000000" stroke="none">
<path d="M4385 6963 c-53 -58 -115 -213 -140 -355 -15 -87 -19 -208 -6 -208
12 0 17 16 35 120 8 47 20 108 26 135 12 55 54 148 75 165 22 18 54 -50 151
-317 155 -430 385 -784 720 -1115 80 -79 165 -168 189 -198 95 -123 136 -231
138 -366 2 -97 -13 -126 -80 -156 -160 -71 -402 21 -614 233 -124 124 -190
226 -278 432 -29 67 -46 58 -45 -24 3 -166 93 -350 249 -514 147 -155 40 -110
-135 56 -74 70 -117 100 -135 93 -26 -10 14 -89 82 -165 66 -73 274 -188 568
-314 229 -99 302 -133 405 -190 100 -55 124 -69 130 -75 3 -3 28 -21 56 -40
98 -68 131 -96 306 -269 97 -96 183 -178 192 -183 12 -7 18 -4 22 7 6 15 -57
120 -103 170 -10 11 -43 52 -73 90 -30 39 -65 81 -76 95 -200 235 -313 379
-339 430 -15 32 -4 76 30 112 87 93 98 238 28 386 -69 148 -167 268 -450 551
-128 128 -255 259 -281 290 -26 31 -53 63 -61 71 -25 26 -117 153 -164 225
-110 172 -171 308 -272 612 -61 183 -89 243 -115 243 -5 0 -21 -12 -35 -27z"/>
<path d="M4339 6528 c0 -18 -2 -42 -4 -53 -3 -11 -6 -92 -9 -180 -6 -224 -10
-232 -83 -204 -38 14 -195 47 -263 54 -205 21 -517 21 -675 0 -16 -2 -68 -9
-115 -15 -99 -13 -116 -16 -190 -30 -30 -7 -68 -14 -85 -16 -145 -25 -429
-127 -635 -228 -210 -104 -320 -174 -466 -300 -82 -70 -370 -360 -434 -435
-25 -30 -70 -84 -100 -120 -98 -116 -193 -246 -292 -400 -30 -46 -107 -197
-129 -252 -67 -169 -146 -450 -164 -583 -1 -12 -10 -73 -19 -136 -52 -363 -38
-896 34 -1260 57 -291 215 -710 370 -980 60 -105 173 -257 239 -320 116 -112
181 -160 181 -134 0 3 -37 51 -83 107 -93 114 -124 158 -189 267 -147 250
-261 591 -312 940 -34 229 -40 693 -11 885 2 17 11 79 20 138 26 183 65 345
124 517 127 371 359 827 423 830 9 0 35 -84 43 -140 4 -25 9 -52 10 -60 1 -8
6 -46 10 -85 25 -256 63 -470 96 -544 17 -39 21 -43 34 -30 12 11 15 61 19
244 2 127 7 241 9 255 3 14 8 50 11 80 11 117 39 281 67 395 23 95 38 135 51
135 5 0 7 -3 4 -8 -26 -42 -27 -764 -1 -924 2 -13 6 -45 10 -72 6 -52 20 -86
35 -86 19 0 38 96 56 280 3 36 8 72 9 81 2 9 6 40 10 70 3 30 8 65 11 79 2 14
6 36 9 50 27 140 27 141 60 270 15 58 28 112 30 120 37 158 150 479 174 494
15 9 -1 -102 -35 -243 -27 -111 -32 -132 -40 -171 -3 -14 -7 -33 -10 -42 -7
-24 -11 -47 -18 -109 -4 -31 -9 -67 -11 -80 -19 -97 -27 -550 -13 -726 12
-150 49 -357 78 -433 5 -14 18 -58 30 -97 11 -40 25 -73 30 -73 5 0 6 50 3
118 -11 225 -6 448 13 562 2 14 7 45 10 70 3 25 8 47 9 50 2 3 6 25 10 48 3
24 15 78 27 120 11 42 24 95 29 117 6 21 16 53 24 70 7 16 23 59 36 95 28 82
114 265 169 361 118 204 238 360 405 525 148 146 309 264 465 340 145 70 139
68 235 98 286 87 602 78 829 -23 65 -30 185 -103 216 -132 9 -8 45 -39 80 -69
36 -30 71 -60 78 -67 14 -14 35 -17 45 -7 7 7 -53 130 -118 239 -25 42 -45 78
-45 81 0 13 -160 262 -192 299 -33 38 -43 43 -59 35 -10 -6 -19 -20 -19 -30 0
-29 -19 -24 -32 8 -35 85 -50 141 -70 265 -15 92 -27 137 -35 137 -8 0 -13
-13 -14 -32z"/>
<path d="M5362 5128 c-20 -25 -1 -225 23 -234 36 -14 84 47 79 99 -3 32 -42
103 -72 130 -15 14 -21 15 -30 5z"/>
<path d="M3310 4925 c-164 -33 -257 -87 -444 -257 -17 -16 -26 -29 -21 -29 20
-2 50 3 60 11 25 19 225 82 299 93 167 27 376 6 551 -55 81 -28 248 -114 271
-139 18 -20 18 -20 -11 -14 -17 4 -84 22 -150 40 -170 47 -217 55 -325 56
-131 2 -205 -7 -318 -40 -242 -70 -397 -176 -540 -369 -62 -83 -74 -126 -23
-79 14 13 39 35 55 48 16 13 34 29 40 35 6 5 36 28 66 51 130 95 245 131 540
169 24 3 49 8 55 10 5 3 1 -2 -9 -10 -11 -9 -24 -16 -28 -16 -21 0 -259 -101
-318 -135 -178 -103 -307 -233 -409 -413 -22 -41 -41 -76 -41 -78 0 -2 -11
-27 -24 -56 -48 -107 -85 -242 -92 -344 -14 -180 -8 -317 21 -474 23 -123 134
-389 206 -492 11 -14 19 -30 19 -35 1 -13 40 -56 46 -50 3 2 -15 54 -39 113
-114 278 -161 490 -162 724 0 127 8 192 35 289 70 251 222 436 470 573 101 55
282 117 395 133 22 4 47 8 55 10 20 6 195 18 245 18 267 -3 501 -79 717 -233
112 -80 298 -261 408 -399 201 -250 254 -306 314 -336 157 -77 303 9 311 184
4 86 -12 151 -72 283 -71 157 -166 308 -194 308 -16 0 -10 -18 37 -117 59
-126 129 -296 144 -351 20 -77 20 -152 0 -191 -21 -40 -41 -55 -88 -66 -78
-17 -135 33 -270 233 -68 101 -114 174 -267 419 -55 89 -218 338 -224 343 -3
3 -26 32 -51 65 -122 163 -326 328 -547 442 -70 36 -128 65 -128 64 0 -1 -13
3 -30 9 -30 12 -123 38 -160 46 -90 17 -125 21 -212 21 -54 0 -127 -5 -163
-12z"/>
<path d="M6321 3636 c-7 -8 -19 -43 -27 -77 -8 -35 -24 -77 -35 -96 -24 -39
-17 -57 18 -48 53 13 88 94 77 176 -7 52 -16 65 -33 45z"/>
<path d="M5570 3552 c0 -15 50 -77 98 -120 92 -82 240 -142 339 -136 47 3 146
51 140 68 -2 6 -21 12 -43 13 -116 4 -196 15 -254 34 -75 24 -179 78 -229 120
-36 29 -51 36 -51 21z"/>
<path d="M1096 3088 c-3 -18 -10 -60 -16 -93 -28 -173 -32 -532 -6 -710 55
-386 205 -787 422 -1124 43 -67 84 -130 89 -140 6 -9 12 -18 15 -21 3 -3 18
-23 35 -45 82 -109 229 -272 336 -371 35 -32 131 -109 214 -172 6 -4 42 -27
80 -52 256 -161 542 -262 920 -325 162 -27 531 -26 712 1 33 5 198 38 243 48
182 43 493 180 711 312 220 132 397 272 589 464 148 148 172 175 258 288 46
62 246 358 276 409 8 15 -151 111 -271 163 -143 62 -454 159 -583 184 -14 2
-46 9 -73 15 -26 6 -64 13 -85 16 -20 3 -53 8 -72 11 -37 6 -247 6 -290 -1
-14 -2 -33 -4 -43 -4 -30 -2 -14 -22 28 -38 22 -8 51 -20 65 -26 14 -6 27 -11
30 -12 3 -1 17 -5 33 -9 38 -11 34 -26 -5 -18 -63 12 -421 7 -475 -7 -59 -14
-73 -33 -37 -50 43 -19 23 -32 -233 -146 -232 -104 -386 -206 -356 -236 8 -8
37 2 104 34 153 72 160 75 254 107 166 56 368 84 610 85 172 0 275 -12 455
-51 187 -42 320 -99 320 -137 0 -20 -141 -149 -245 -223 -181 -129 -277 -183
-350 -193 -32 -5 -41 -11 -43 -28 -2 -16 2 -23 15 -24 10 -1 25 -2 33 -3 8 0
33 3 55 7 22 5 51 11 65 13 43 9 247 92 307 125 122 69 141 73 109 24 -32 -48
-258 -214 -417 -305 -60 -34 -234 -121 -289 -143 -104 -43 -275 -84 -528 -126
-180 -31 -222 -42 -222 -61 0 -18 53 -23 169 -17 64 4 127 9 141 11 14 2 52 7
85 11 121 13 322 57 387 86 65 28 158 40 158 20 0 -48 -357 -192 -560 -225
-160 -27 -502 -28 -660 -2 -14 3 -59 10 -100 16 -160 26 -324 70 -420 112 -25
11 -58 26 -75 33 -16 7 -60 27 -96 44 -116 55 -176 51 -102 -6 102 -78 494
-279 621 -318 44 -13 15 -15 -59 -5 -41 6 -94 13 -119 16 -81 10 -267 63 -387
110 -470 185 -903 546 -1227 1022 -223 328 -384 723 -440 1077 -21 136 -24
181 -26 428 -1 169 -4 207 -15 207 -8 0 -16 -14 -19 -32z"/>
</g>
</svg>
