<?xml version="1.0" standalone="no"?>
<!DOCTYPE svg PUBLIC "-//W3C//DTD SVG 20010904//EN"
 "http://www.w3.org/TR/2001/REC-SVG-20010904/DTD/svg10.dtd">
<svg version="1.0" xmlns="http://www.w3.org/2000/svg"
 width="1052.000000pt" height="1052.000000pt" viewBox="0 0 1052.000000 1052.000000"
 preserveAspectRatio="xMidYMid meet">
<metadata>
Created by potrace 1.11, written by Peter Selinger 2001-2013
</metadata>
<g transform="translate(0.000000,1052.000000) scale(0.100000,-0.100000)"
fill="#000000" stroke="none">
<path d="M3143 8688 c-6 -7 -58 -107 -118 -223 -355 -693 -901 -1631 -1313
-2261 -73 -110 -132 -210 -132 -221 0 -25 30 -53 56 -53 10 1 53 30 94 66 526
460 1051 583 1560 365 307 -131 632 -425 907 -821 l65 -95 -851 -847 c-674
-671 -851 -853 -851 -873 0 -37 40 -60 82 -46 18 5 87 24 153 41 66 17 152 40
190 50 39 10 381 100 760 200 380 100 722 190 760 200 229 61 304 80 312 80 9
0 29 -82 55 -230 20 -113 17 -414 -5 -522 -50 -246 -150 -438 -322 -617 -191
-198 -402 -326 -730 -441 -103 -36 -132 -50 -142 -69 -14 -30 -2 -58 30 -70
12 -5 76 -5 142 0 631 43 1945 39 2856 -7 l127 -7 17 27 c30 46 9 68 -104 106
-389 133 -677 325 -863 574 -71 95 -159 272 -188 376 -50 182 -63 400 -35 606
18 141 54 294 68 294 6 0 229 -59 496 -131 267 -73 684 -185 926 -250 242 -66
518 -140 613 -166 144 -39 176 -44 197 -35 18 8 25 19 25 39 0 31 53 -24
-1013 1051 l-678 684 47 66 c309 438 651 730 1002 856 244 87 540 89 795 5
215 -72 412 -188 630 -371 71 -59 137 -108 146 -108 23 0 51 31 51 56 0 10
-57 107 -127 214 -414 640 -985 1633 -1304 2273 -56 111 -108 210 -117 220 -8
9 -28 17 -44 17 -49 0 -54 -31 -29 -167 35 -193 41 -250 41 -412 0 -261 -38
-447 -134 -646 -182 -379 -559 -637 -1106 -759 -134 -29 -357 -62 -366 -53 -8
8 -23 62 -255 937 -134 504 -210 771 -221 782 -21 21 -38 23 -62 5 -12 -9 -84
-256 -250 -865 -128 -469 -235 -854 -237 -856 -2 -2 -31 0 -64 5 -380 55 -672
148 -900 289 -265 163 -455 396 -544 670 -84 256 -93 582 -26 919 21 103 22
119 9 139 -16 25 -65 31 -81 10z"/>
</g>
</svg>
