<?xml version="1.0" encoding="UTF-8" standalone="no"?>
<svg
   xmlns:dc="http://purl.org/dc/elements/1.1/"
   xmlns:cc="http://creativecommons.org/ns#"
   xmlns:rdf="http://www.w3.org/1999/02/22-rdf-syntax-ns#"
   xmlns:svg="http://www.w3.org/2000/svg"
   xmlns="http://www.w3.org/2000/svg"
   xmlns:xlink="http://www.w3.org/1999/xlink"
   xmlns:sodipodi="http://sodipodi.sourceforge.net/DTD/sodipodi-0.dtd"
   xmlns:inkscape="http://www.inkscape.org/namespaces/inkscape"
   height="373.54205"
   width="373.54205"
   version="1.1"
   viewBox="0 0 98.833003 98.833"
   id="svg844"
   sodipodi:docname="favicon.svg"
   inkscape:version="0.92.3 (2405546, 2018-03-11)"
   inkscape:export-filename="/home/guilherme/Ãrea de Trabalho/Projetos/Profile/admin/icon-96x96.png"
   inkscape:export-xdpi="24.67"
   inkscape:export-ydpi="24.67">
  <metadata
     id="metadata848">
    <rdf:RDF>
      <cc:Work
         rdf:about="">
        <dc:format>image/svg+xml</dc:format>
        <dc:type
           rdf:resource="http://purl.org/dc/dcmitype/StillImage" />
        <dc:title></dc:title>
      </cc:Work>
    </rdf:RDF>
  </metadata>
  <sodipodi:namedview
     pagecolor="#ffffff"
     bordercolor="#666666"
     borderopacity="1"
     objecttolerance="10"
     gridtolerance="10"
     guidetolerance="10"
     inkscape:pageopacity="0"
     inkscape:pageshadow="2"
     inkscape:window-width="1366"
     inkscape:window-height="711"
     id="namedview846"
     showgrid="false"
     inkscape:zoom="0.82440486"
     inkscape:cx="-8.3828896"
     inkscape:cy="201.67517"
     inkscape:window-x="0"
     inkscape:window-y="0"
     inkscape:window-maximized="1"
     inkscape:current-layer="svg844"
     inkscape:pagecheckerboard="true"
     units="px"
     showguides="false" />
  <defs
     id="defs824">
    <marker
       inkscape:stockid="Arrow1Lstart"
       orient="auto"
       refY="0"
       refX="0"
       id="Arrow1Lstart"
       style="overflow:visible"
       inkscape:isstock="true">
      <path
         id="path1005"
         d="M 0,0 5,-5 -12.5,0 5,5 Z"
         style="fill-rule:evenodd;stroke:#000000;stroke-width:1.00000003pt"
         transform="matrix(0.8,0,0,0.8,10,0)"
         inkscape:connector-curvature="0" />
    </marker>
    <marker
       inkscape:stockid="ExperimentalArrow"
       orient="auto-start-reverse"
       refY="3"
       refX="5"
       id="ExperimentalArrow"
       inkscape:isstock="true">
      <path
         id="path1258"
         d="M 10,3 0,6 V 0 Z"
         style="fill:context-stroke"
         inkscape:connector-curvature="0" />
    </marker>
    <style
       type="text/css"
       id="style815">
   @font-face {
    font-family: 'Flotta';
    src: url('../webfonts/FLOTTA.eot');
    src: url('../webfonts/FLOTTA.woff2') format('woff2'),
        url('../webfonts/FLOTTA.woff') format('woff'),
        url('../webfonts/FLOTTA.ttf') format('truetype'),
        url('../webfonts/FLOTTA.svg#FLOTTA') format('svg'),
        url('../webfonts/FLOTTA.eot?#iefix') format('embedded-opentype');
    font-weight: normal;
    font-style: normal;
   }
  </style>
    <linearGradient
       id="blue-blue-gray">
      <stop
         stop-color="#039be5"
         offset="0"
         id="stop817" />
      <stop
         stop-color="#263238"
         offset="1"
         id="stop819" />
    </linearGradient>
    <linearGradient
       id="linearGradient2013"
       x1="39.944"
       xlink:href="#blue-blue-gray"
       gradientUnits="userSpaceOnUse"
       x2="28.285999"
       y1="34.289001"
       y2="47.166" />
    <linearGradient
       id="linearGradient2359"
       x1="28.839001"
       xlink:href="#blue-blue-gray"
       gradientUnits="userSpaceOnUse"
       x2="39.674999"
       y1="47.863998"
       y2="34.254002" />
    <linearGradient
       inkscape:collect="always"
       xlink:href="#blue-blue-gray"
       id="linearGradient869"
       gradientUnits="userSpaceOnUse"
       x1="39.944"
       y1="34.289001"
       x2="28.285999"
       y2="47.166" />
    <linearGradient
       inkscape:collect="always"
       xlink:href="#blue-blue-gray"
       id="linearGradient871"
       gradientUnits="userSpaceOnUse"
       x1="28.839001"
       y1="47.863998"
       x2="39.674999"
       y2="34.254002" />
    <linearGradient
       inkscape:collect="always"
       xlink:href="#blue-blue-gray"
       id="linearGradient873"
       gradientUnits="userSpaceOnUse"
       x1="39.944"
       y1="34.289001"
       x2="28.285999"
       y2="47.166" />
    <linearGradient
       inkscape:collect="always"
       xlink:href="#blue-blue-gray"
       id="linearGradient875"
       gradientUnits="userSpaceOnUse"
       x1="28.839001"
       y1="47.863998"
       x2="39.674999"
       y2="34.254002" />
    <linearGradient
       inkscape:collect="always"
       xlink:href="#blue-blue-gray"
       id="linearGradient877"
       gradientUnits="userSpaceOnUse"
       x1="39.944"
       y1="34.289001"
       x2="28.285999"
       y2="47.166" />
    <linearGradient
       inkscape:collect="always"
       xlink:href="#blue-blue-gray"
       id="linearGradient879"
       gradientUnits="userSpaceOnUse"
       x1="28.839001"
       y1="47.863998"
       x2="39.674999"
       y2="34.254002" />
    <linearGradient
       inkscape:collect="always"
       xlink:href="#blue-blue-gray"
       id="linearGradient881"
       gradientUnits="userSpaceOnUse"
       x1="39.944"
       y1="34.289001"
       x2="28.285999"
       y2="47.166" />
    <linearGradient
       inkscape:collect="always"
       xlink:href="#blue-blue-gray"
       id="linearGradient883"
       gradientUnits="userSpaceOnUse"
       x1="28.839001"
       y1="47.863998"
       x2="39.674999"
       y2="34.254002" />
    <linearGradient
       inkscape:collect="always"
       xlink:href="#blue-blue-gray"
       id="linearGradient847"
       gradientUnits="userSpaceOnUse"
       x1="39.944"
       y1="34.289001"
       x2="28.285999"
       y2="47.166" />
    <linearGradient
       inkscape:collect="always"
       xlink:href="#blue-blue-gray"
       id="linearGradient849"
       gradientUnits="userSpaceOnUse"
       x1="28.839001"
       y1="47.863998"
       x2="39.674999"
       y2="34.254002" />
  </defs>
  <circle
     style="opacity:1;fill:#ffffff;fill-opacity:1;stroke:none;stroke-width:2.44126844;stroke-linejoin:round;stroke-miterlimit:4;stroke-dasharray:none;stroke-opacity:1"
     id="path939"
     cx="49.4165"
     cy="49.4165"
     r="49.4165" />
  <g
     transform="matrix(0.50803565,0,0,0.50803565,-5.2361302,9.9845272)"
     id="g834"
     style="opacity:1;fill:url(#linearGradient2013);stroke:url(#linearGradient2359);stroke-width:0.45721254;stroke-linejoin:round;stroke-miterlimit:4;stroke-dasharray:none;stroke-dashoffset:4.57212543">
    <g
       id="g1275"
       style="fill:url(#linearGradient847);stroke:url(#linearGradient849);stroke-width:0.45721254;stroke-linejoin:round;stroke-miterlimit:4;stroke-dasharray:none">
      <g
         style="fill:url(#linearGradient873);stroke:url(#linearGradient875);stroke-width:0.10604072;stroke-linejoin:round;stroke-miterlimit:4;stroke-dasharray:none;stroke-dashoffset:1.06040716"
         id="g828"
         transform="matrix(0.58791,-4.2714,-4.2714,-0.58791,227.44,205.14)">
        <path
           style="fill:url(#linearGradient869);stroke:url(#linearGradient871);stroke-width:0.10604072;stroke-linejoin:round;stroke-miterlimit:4;stroke-dasharray:none;stroke-dashoffset:1.06040716"
           inkscape:connector-curvature="0"
           id="path826"
           d="M 18.187,42.775 C 14.476,41.877 10.778,38.922 9.2331,35.62 7.8237,32.608 7.8958,28.454 9.4098,25.439 10.835,22.602 13.339,20.114 16.104,18.786 l 1.5181,-0.72881 0.32639,0.78247 c 0.51599,1.237 0.93261,4.4711 0.7124,5.5303 l -0.2008,0.96573 -0.18926,-0.79375 c -0.1722,-0.72222 -0.19375,-0.68646 -0.23916,0.39688 -0.04874,1.1629 -0.48142,2.687 -0.52576,1.8521 -0.01159,-0.21828 -0.3659,0.20429 -0.78734,0.93904 -0.42145,0.73475 -0.98122,1.5087 -1.244,1.7198 -0.37166,0.29868 -0.34932,0.2007 0.1007,-0.44146 0.72032,-1.0279 1.086,-1.9761 1.4164,-3.6726 0.31805,-1.6332 0.05502,-4.3656 -0.42024,-4.3656 -0.41177,0 -2.5213,2.2457 -2.5213,2.684 0,0.17303 -0.06831,0.24628 -0.1518,0.16279 -0.1778,-0.1778 0.56416,-1.7148 1.1508,-2.3838 0.22329,-0.25466 0.28362,-0.46302 0.13408,-0.46302 -0.43003,0 -2.3631,2.2204 -2.9718,3.4135 -0.30439,0.59665 -0.72173,1.7098 -0.92742,2.4737 -0.2057,0.76389 -0.38183,1.1426 -0.39141,0.84159 -0.02203,-0.69235 0.74534,-3.3389 1.0649,-3.6728 0.13231,-0.13824 0.23791,-0.4359 0.23468,-0.66146 -0.0097,-0.67706 -0.98479,0.75091 -1.5786,2.3118 -0.63623,1.6724 -0.70397,4.9327 -0.13564,6.5284 0.20534,0.57651 0.33178,1.0898 0.28099,1.1406 -0.11922,0.11922 -0.9417,-2.033 -1.2101,-3.1667 l -0.207,-0.87415 -0.027083,0.97916 c -0.159,5.7485 5.3244,11.847 11.35,12.623 1.6822,0.21665 1.6909,0.22174 0.39688,0.23299 -0.7276,0.0063 -2.0213,-0.15754 -2.8749,-0.36416 z" />
      </g>
      <g
         style="fill:url(#linearGradient881);stroke:url(#linearGradient883);stroke-width:0.10770598;stroke-linejoin:round;stroke-miterlimit:4;stroke-dasharray:none;stroke-dashoffset:1.07705986"
         id="g832"
         transform="matrix(-0.31369,-4.2334,-4.2334,0.31369,245.2,175.22)">
        <path
           style="fill:url(#linearGradient877);stroke:url(#linearGradient879);stroke-width:0.10770598;stroke-linejoin:round;stroke-miterlimit:4;stroke-dasharray:none;stroke-dashoffset:1.07705986"
           inkscape:connector-curvature="0"
           id="path830"
           d="m 20.065,45.028 c -2.2447,-0.45647 -4.8203,-1.2404 -6.3056,-2.6148 -0.69257,-0.64084 -0.85529,-0.85001 -0.36161,-0.46484 3.4308,2.6768 8.8141,2.8056 13.033,1.5099 1.8783,-0.57693 5.1838,-2.3855 5.3676,-2.9369 0.06811,-0.20433 -0.48201,-0.30995 -1.7075,-0.32783 -2.254,-0.03288 -3.8161,-0.43598 -1.8462,-0.47642 1.3712,-0.02815 4.3838,-0.71363 4.7669,-1.0846 0.12693,-0.12293 -0.23026,-0.11655 -0.79375,0.01419 -1.0982,0.2548 -5.0431,0.34422 -4.8078,0.10898 0.07774,-0.07774 0.89518,-0.26275 1.8165,-0.41113 1.6734,-0.26949 5.8867,-1.8451 5.383,-2.013 -0.14646,-0.04882 -0.97502,0.16098 -1.8412,0.46622 -1.8272,0.64388 -5.2819,0.91845 -6.9989,0.55627 l -1.1906,-0.25115 1.3229,-0.03546 c 5.8532,-0.15688 11.333,-4.8359 11.335,-9.6798 0.0011,-1.788 -0.51298,-3.0126 -1.7495,-4.1677 -0.75996,-0.70991 -0.71599,-0.70109 1.3021,0.26128 1.4886,0.70987 1.9349,1.0265 1.5534,1.1022 -0.37374,0.07414 -0.192,0.27405 0.65545,0.43704 0,0 0.51574,0.10019 1.1954,0.12708 0.98988,-0.01167 -1.1576,0.22978 -1.1576,0.22978 -0.98816,0.05614 -1.1257,0.09156 -0.96169,0.489 0.75467,1.8286 0.86651,5.3715 0.25187,7.979 -0.21977,0.93234 -0.7784,2.4206 -1.2414,3.3073 -1.0276,1.9679 -4.2911,5.2898 -6.2033,6.3143 -3.0127,1.6141 -7.3809,2.0921 -10.817,1.5612 z M 19.836,34.7 c 6.449,2.3975 9.3018,-1.2099 9.0535,-5.6885 -0.21158,-2.491 -1.3593,-4.1002 -4.3108,-6.0443 -1.0999,-0.72446 -1.3229,-1.0052 -1.3229,-1.6651 0,-0.76004 0.971301,-1.206171 2.208442,-0.690403 0,0 1.336273,0.428782 1.783258,0.895593 -0.805526,-0.233689 -3.627378,-1.70612 -3.726078,-0.15224 0,0.60627 0.461778,0.84859 3.804678,2.59292 1.9814,1.0339 2.7796,1.6256 3.653,2.7081 1.7574,2.178 2.0945,4.5596 0.87116,6.1554 l -0.50704,0.66146 0.2905,-0.96078 c 0.38302,-1.2668 0.09598,-3.0351 -0.70411,-4.3377 -0.72802,-1.1852 -0.8627,-0.93407 -0.26553,0.49516 0.76781,1.8376 0.22708,4.3636 -1.1982,5.5971 l -0.61144,0.52917 0.61776,-0.8517 c 0.43561,-0.60057 0.64454,-1.3027 0.70855,-2.3812 l 0.09079,-1.5296 -0.3972,1.403 c -0.61306,2.1654 -1.8693,3.3694 -4.1281,4.1752 -2.2229,0.45257 -3.7578,0.25946 -5.9104,-0.91154 z m 21.478,-9.3552 c 0.32742,-0.15791 0.59531,-0.36161 0.59531,-0.45266 0,-0.09105 -0.82191,-0.37728 -1.8265,-0.63606 -1.9967,-0.51435 -4.3981,-1.8303 -5.8465,-3.2039 -1.1736,-1.1129 -1.875,-1.4699 -2.888,-1.4699 -0.62875,0 -0.84094,0.13879 -0.96443,0.63084 -0.35354,1.4086 1.4328,3.5027 3.5254,4.1328 0.61878,0.18632 0.63995,0.22127 0.1458,0.24071 -0.81202,0.03195 -1.9623,-0.44291 -2.6631,-1.0993 -0.32742,-0.30672 -0.59531,-0.42843 -0.59531,-0.27048 0,0.15795 0.36632,0.59542 0.81405,0.97216 0.88856,0.74768 0.72317,0.93793 -0.2331,0.26814 -0.32732,-0.22926 -1.0837,-1.3901 -1.6809,-2.5797 -1.2265,-2.4432 -1.9253,-3.3738 -3.4621,-4.6102 -1.6071,-1.293 -0.90448,-1.0333 1.0737,0.39688 2.4325,1.7586 2.3843,1.7371 2.8493,1.272 0.95818,-0.95818 2.5192,-0.3429 5.0108,1.975 1.8345,1.7066 3.6196,2.7235 5.5837,3.1807 2.1375,0.49756 2.1324,0.49337 1.2768,1.0574 -0.42977,0.2833 -1.5579,0.66435 -2.2764,0.65546 -0.14552,-0.0089 1.2337,-0.3019 1.5612,-0.45981 z m -9.5373,-4.9962 c 0.20927,-0.20927 0.43041,-0.21155 0.78052,-0.008 0.42826,0.24893 0.39224,0.28495 -0.292,0.292 -0.5692,0.0059 -0.70146,-0.07101 -0.48852,-0.28396 z m -8.296,-2.712 c 0.49666,-1.0291 -0.32884,0.822162 1.3123,2.4628 -0.940478,-0.471834 -1.6361,-1.7918 -1.3123,-2.4628 z m 0.45868,-1.118 c 0.04307,-0.1356 0.49536,-0.36087 0.76583,-0.29888 0.4998,0.02134 0.19169,0.12396 -0.30535,0.25048 -0.4463,0.20913 -0.60379,0.49958 -0.46048,0.04839 z"
           sodipodi:nodetypes="ccccscsccccsccccccscccccccccccccsccccccccccccccccccccsccscsccsccccccccccccccccccccccccc" />
      </g>
    </g>
  </g>
  <path
     inkscape:transform-center-x="-4.4357763"
     inkscape:transform-center-y="10.657766"
     id="path928"
     d="m 39.928191,34.40624 c 1.372623,-0.367795 2.187695,-1.779542 1.819589,-3.153331 l -4.972064,1.332261 c 0.368105,1.373789 1.779852,2.188863 3.152475,1.82107 z m 6.811633,-8.060996 c -0.967001,-0.605602 -2.697083,-1.442841 -3.76235,-5.418472 -0.809103,-3.019614 -3.57403,-4.869552 -6.587772,-4.697642 l -0.217011,-0.809894 c -0.184,-0.6867 -0.88973,-1.094482 -1.576043,-0.910585 -0.686311,0.183896 -1.093601,0.889912 -0.9096,1.576611 l 0.21701,0.809895 c -2.695933,1.357993 -4.165461,4.342548 -3.356357,7.362163 1.065267,3.975631 -0.01441,5.565742 -0.549054,6.573708 -0.166014,0.313143 -0.1891,0.640472 -0.108536,0.933363 0.175071,0.636194 0.837656,1.108437 1.580707,0.909337 l 14.915419,-3.996575 c 0.743049,-0.1991 1.081152,-0.939475 0.914263,-1.577862 -0.07667,-0.293932 -0.260441,-0.566251 -0.560676,-0.754047 z"
     inkscape:connector-curvature="0"
     style="opacity:0.25;fill:#000000;fill-opacity:1;stroke:none;stroke-width:0.31672183;stroke-miterlimit:4;stroke-dasharray:none" />
  <path
     style="opacity:0.25;fill:#000000;fill-opacity:1;stroke:none;stroke-width:0.31672183;stroke-miterlimit:4;stroke-dasharray:none"
     inkscape:connector-curvature="0"
     d="m 29.817297,34.40624 c 1.372623,0.367792 2.78437,-0.447282 3.152475,-1.82107 l -4.972064,-1.332261 c -0.368106,1.37379 0.446965,2.785537 1.819589,3.153331 z m 9.929544,-3.575211 c -0.534645,-1.007968 -1.614321,-2.598079 -0.549055,-6.57371 0.809105,-3.019614 -0.660423,-6.00417 -3.356356,-7.362162 l 0.21701,-0.809895 c 0.184001,-0.6867 -0.223289,-1.392715 -0.909602,-1.576611 -0.686309,-0.183897 -1.39204,0.223886 -1.57604,0.910585 l -0.217012,0.809895 c -3.013743,-0.171911 -5.778669,1.678027 -6.587773,4.697641 -1.065266,3.975631 -2.795351,4.812869 -3.762349,5.418472 -0.30034,0.188183 -0.483998,0.460117 -0.560675,0.754048 -0.166482,0.638495 0.171212,1.378762 0.914263,1.577862 l 14.91542,3.996574 c 0.743049,0.199099 1.406043,-0.273033 1.580705,-0.909337 0.08057,-0.292889 0.05758,-0.620609 -0.108536,-0.933362 z"
     id="path930"
     inkscape:transform-center-y="10.657766"
     inkscape:transform-center-x="4.4356751" />
  <path
     id="path80"
     d="m 34.872744,35.071802 c 1.421044,0 2.57373,-1.152688 2.57373,-2.574939 h -5.14746 c 0,1.422251 1.152686,2.574939 2.57373,2.574939 z m 8.665871,-6.023343 c -0.777309,-0.835246 -2.231747,-2.091734 -2.231747,-6.207611 0,-3.126134 -2.191915,-5.628652 -5.147459,-6.242614 V 15.75977 c 0,-0.710924 -0.576143,-1.287468 -1.286665,-1.287468 -0.710521,0 -1.286664,0.576544 -1.286664,1.287468 v 0.838464 c -2.955545,0.613962 -5.14746,3.11648 -5.14746,6.242614 0,4.115877 -1.454438,5.372365 -2.231747,6.207611 -0.2414,0.259505 -0.348422,0.569704 -0.346409,0.873466 0.0044,0.659829 0.522229,1.287469 1.291491,1.287469 h 15.441578 c 0.769262,0 1.287468,-0.62764 1.291491,-1.287469 0.002,-0.303762 -0.105009,-0.614364 -0.346409,-0.873466 z"
     inkscape:connector-curvature="0"
     style="fill:#000000;stroke:#000000;stroke-width:0.31672183;stroke-miterlimit:4;stroke-dasharray:none" />
</svg>
